<svg width="55" height="55" viewBox="0 0 55 55" fill="none" xmlns="http://www.w3.org/2000/svg">
<rect width="55" height="55" rx="5" fill="black"/>
<path d="M39.7773 18.4817L47.376 13.416C47.6728 13.2181 47.6728 12.7819 47.376 12.584L39.7773 7.51825C39.4451 7.29669 39 7.53491 39 7.93426V10H17.5C16.6716 10 16 10.6716 16 11.5V13.5C16 14.3284 15.3284 15 14.5 15H12.5C11.6716 15 11 15.6716 11 16.5V31.5C11 32.3284 11.6716 33 12.5 33H15.5C16.3284 33 17 32.3284 17 31.5V17.5C17 16.6716 17.6716 16 18.5 16H39V18.0657C39 18.4651 39.4451 18.7033 39.7773 18.4817Z" fill="#F2F2F2"/>
<path d="M43.5 21C44.3284 21 45 21.6716 45 22.5V37.5C45 38.3284 44.3284 39 43.5 39H41.5C40.6716 39 40 39.6716 40 40.5V42.5C40 43.3284 39.3284 44 38.5 44H17V46.0658C17 46.4651 16.5549 46.7032 16.2226 46.4818L8.62402 41.416C8.32716 41.2181 8.32714 40.7819 8.62402 40.584L16.2226 35.5182C16.5549 35.2968 17 35.5349 17 35.9342V38H37.5C38.3284 38 39 37.3284 39 36.5V22.5C39 21.6716 39.6716 21 40.5 21H43.5Z" fill="#F2F2F2"/>
</svg>
