<svg width="244" height="55" viewBox="0 0 244 55" fill="none" xmlns="http://www.w3.org/2000/svg">
<path d="M71.457 30.5508C72.1211 30.9258 72.793 31.2656 73.4727 31.5703C74.1602 31.8672 74.8711 32.1211 75.6055 32.332C76.3398 32.5352 77.1094 32.6914 77.9141 32.8008C78.7266 32.9102 79.5898 32.9648 80.5039 32.9648C81.6055 32.9648 82.543 32.8945 83.3164 32.7539C84.0898 32.6055 84.7188 32.4062 85.2031 32.1562C85.6953 31.8984 86.0508 31.5938 86.2695 31.2422C86.4961 30.8906 86.6094 30.5078 86.6094 30.0938C86.6094 29.4297 86.332 28.9062 85.7773 28.5234C85.2227 28.1328 84.3672 27.9375 83.2109 27.9375C82.7031 27.9375 82.168 27.9727 81.6055 28.043C81.043 28.1055 80.4727 28.1758 79.8945 28.2539C79.3242 28.332 78.7578 28.4062 78.1953 28.4766C77.6406 28.5391 77.1172 28.5703 76.625 28.5703C75.8047 28.5703 75.0156 28.4648 74.2578 28.2539C73.5078 28.043 72.8398 27.7266 72.2539 27.3047C71.6758 26.8828 71.2148 26.3555 70.8711 25.7227C70.5273 25.0898 70.3555 24.3516 70.3555 23.5078C70.3555 23.0078 70.4219 22.5117 70.5547 22.0195C70.6953 21.5273 70.9141 21.0586 71.2109 20.6133C71.5156 20.1602 71.9062 19.7422 72.3828 19.3594C72.8594 18.9688 73.4336 18.6328 74.1055 18.3516C74.7852 18.0703 75.5664 17.8516 76.4492 17.6953C77.3398 17.5312 78.3516 17.4492 79.4844 17.4492C80.3047 17.4492 81.1289 17.4961 81.957 17.5898C82.7852 17.6758 83.5898 17.8008 84.3711 17.9648C85.1602 18.1289 85.918 18.3281 86.6445 18.5625C87.3711 18.7891 88.0469 19.043 88.6719 19.3242L87.043 22.3242C86.5273 22.0977 85.9727 21.8906 85.3789 21.7031C84.7852 21.5078 84.1641 21.3398 83.5156 21.1992C82.8672 21.0586 82.1953 20.9492 81.5 20.8711C80.8125 20.7852 80.1094 20.7422 79.3906 20.7422C78.3672 20.7422 77.5234 20.8164 76.8594 20.9648C76.2031 21.1133 75.6797 21.3047 75.2891 21.5391C74.8984 21.7656 74.625 22.0234 74.4688 22.3125C74.3203 22.5938 74.2461 22.875 74.2461 23.1562C74.2461 23.7031 74.4922 24.1523 74.9844 24.5039C75.4766 24.8477 76.2266 25.0195 77.2344 25.0195C77.6406 25.0195 78.1055 24.9922 78.6289 24.9375C79.1602 24.875 79.7148 24.8086 80.293 24.7383C80.8789 24.668 81.4727 24.6055 82.0742 24.5508C82.6836 24.4883 83.2734 24.457 83.8438 24.457C84.9219 24.457 85.875 24.5781 86.7031 24.8203C87.5391 25.0625 88.2383 25.4102 88.8008 25.8633C89.3633 26.3086 89.7891 26.8516 90.0781 27.4922C90.3672 28.125 90.5117 28.8359 90.5117 29.625C90.5117 30.6797 90.2656 31.6211 89.7734 32.4492C89.2891 33.2695 88.5938 33.9648 87.6875 34.5352C86.7891 35.0977 85.7031 35.5273 84.4297 35.8242C83.1562 36.1133 81.7383 36.2578 80.1758 36.2578C79.1445 36.2578 78.1367 36.1914 77.1523 36.0586C76.168 35.9336 75.2227 35.7539 74.3164 35.5195C73.418 35.2773 72.5586 34.9922 71.7383 34.6641C70.9258 34.3281 70.1719 33.9609 69.4766 33.5625L71.457 30.5508ZM100.848 17.6836H104.785L113.645 36H109.742L108.277 32.918H97.5781L96.1602 36H92.2461L100.848 17.6836ZM106.812 29.8594L102.852 21.5391L98.9961 29.8594H106.812ZM116.492 17.6836H132.875V20.9414H120.207V25.7344H130.965V28.793H120.207V36H116.492V17.6836ZM136.461 17.6836H152.059V20.9414H140.176V24.5977H150.699V27.6562H140.176V32.7539H152.305V36H136.461V17.6836ZM157.285 30.5508C157.949 30.9258 158.621 31.2656 159.301 31.5703C159.988 31.8672 160.699 32.1211 161.434 32.332C162.168 32.5352 162.938 32.6914 163.742 32.8008C164.555 32.9102 165.418 32.9648 166.332 32.9648C167.434 32.9648 168.371 32.8945 169.145 32.7539C169.918 32.6055 170.547 32.4062 171.031 32.1562C171.523 31.8984 171.879 31.5938 172.098 31.2422C172.324 30.8906 172.438 30.5078 172.438 30.0938C172.438 29.4297 172.16 28.9062 171.605 28.5234C171.051 28.1328 170.195 27.9375 169.039 27.9375C168.531 27.9375 167.996 27.9727 167.434 28.043C166.871 28.1055 166.301 28.1758 165.723 28.2539C165.152 28.332 164.586 28.4062 164.023 28.4766C163.469 28.5391 162.945 28.5703 162.453 28.5703C161.633 28.5703 160.844 28.4648 160.086 28.2539C159.336 28.043 158.668 27.7266 158.082 27.3047C157.504 26.8828 157.043 26.3555 156.699 25.7227C156.355 25.0898 156.184 24.3516 156.184 23.5078C156.184 23.0078 156.25 22.5117 156.383 22.0195C156.523 21.5273 156.742 21.0586 157.039 20.6133C157.344 20.1602 157.734 19.7422 158.211 19.3594C158.688 18.9688 159.262 18.6328 159.934 18.3516C160.613 18.0703 161.395 17.8516 162.277 17.6953C163.168 17.5312 164.18 17.4492 165.312 17.4492C166.133 17.4492 166.957 17.4961 167.785 17.5898C168.613 17.6758 169.418 17.8008 170.199 17.9648C170.988 18.1289 171.746 18.3281 172.473 18.5625C173.199 18.7891 173.875 19.043 174.5 19.3242L172.871 22.3242C172.355 22.0977 171.801 21.8906 171.207 21.7031C170.613 21.5078 169.992 21.3398 169.344 21.1992C168.695 21.0586 168.023 20.9492 167.328 20.8711C166.641 20.7852 165.938 20.7422 165.219 20.7422C164.195 20.7422 163.352 20.8164 162.688 20.9648C162.031 21.1133 161.508 21.3047 161.117 21.5391C160.727 21.7656 160.453 22.0234 160.297 22.3125C160.148 22.5938 160.074 22.875 160.074 23.1562C160.074 23.7031 160.32 24.1523 160.812 24.5039C161.305 24.8477 162.055 25.0195 163.062 25.0195C163.469 25.0195 163.934 24.9922 164.457 24.9375C164.988 24.875 165.543 24.8086 166.121 24.7383C166.707 24.668 167.301 24.6055 167.902 24.5508C168.512 24.4883 169.102 24.457 169.672 24.457C170.75 24.457 171.703 24.5781 172.531 24.8203C173.367 25.0625 174.066 25.4102 174.629 25.8633C175.191 26.3086 175.617 26.8516 175.906 27.4922C176.195 28.125 176.34 28.8359 176.34 29.625C176.34 30.6797 176.094 31.6211 175.602 32.4492C175.117 33.2695 174.422 33.9648 173.516 34.5352C172.617 35.0977 171.531 35.5273 170.258 35.8242C168.984 36.1133 167.566 36.2578 166.004 36.2578C164.973 36.2578 163.965 36.1914 162.98 36.0586C161.996 35.9336 161.051 35.7539 160.145 35.5195C159.246 35.2773 158.387 34.9922 157.566 34.6641C156.754 34.3281 156 33.9609 155.305 33.5625L157.285 30.5508ZM186.043 31.4648L178.039 17.6836H182.246L187.883 28.1016L193.449 17.6836H197.656L189.758 31.4414V36H186.043V31.4648ZM200.445 17.6836H204.16L215.574 23.6602V17.6836H219.289V36H215.574V27.5977L204.16 21.6562V36H200.445V17.6836ZM223.355 26.7305C223.355 25.4258 223.602 24.2109 224.094 23.0859C224.586 21.9531 225.297 20.9727 226.227 20.1445C227.164 19.3086 228.305 18.6523 229.648 18.1758C231 17.6992 232.527 17.4609 234.23 17.4609C235.723 17.4609 237.09 17.6133 238.332 17.918C239.582 18.2148 240.742 18.6719 241.812 19.2891L240.102 22.1016C239.781 21.8906 239.41 21.7031 238.988 21.5391C238.574 21.375 238.129 21.2383 237.652 21.1289C237.184 21.0117 236.695 20.9219 236.188 20.8594C235.688 20.7969 235.191 20.7656 234.699 20.7656C233.512 20.7656 232.453 20.9141 231.523 21.2109C230.594 21.5 229.809 21.9102 229.168 22.4414C228.535 22.9648 228.051 23.5938 227.715 24.3281C227.387 25.0547 227.223 25.8555 227.223 26.7305C227.223 27.6367 227.395 28.4688 227.738 29.2266C228.082 29.9844 228.578 30.6406 229.227 31.1953C229.883 31.7422 230.68 32.1719 231.617 32.4844C232.562 32.7891 233.629 32.9414 234.816 32.9414C235.355 32.9414 235.891 32.9023 236.422 32.8242C236.953 32.7461 237.465 32.6406 237.957 32.5078C238.457 32.3672 238.938 32.2031 239.398 32.0156C239.859 31.8203 240.289 31.6094 240.688 31.3828L242.398 34.1953C241.398 34.8359 240.242 35.3398 238.93 35.707C237.617 36.0664 236.223 36.2461 234.746 36.2461C232.863 36.2461 231.211 36.0039 229.789 35.5195C228.367 35.0273 227.18 34.3555 226.227 33.5039C225.273 32.6445 224.555 31.6367 224.07 30.4805C223.594 29.3164 223.355 28.0664 223.355 26.7305Z" fill="black"/>
<rect width="55" height="55" rx="5" fill="black"/>
<path d="M39.7773 18.4817L47.376 13.416C47.6728 13.2181 47.6728 12.7819 47.376 12.584L39.7773 7.51825C39.4451 7.29669 39 7.53491 39 7.93426V10H17.5C16.6716 10 16 10.6716 16 11.5V13.5C16 14.3284 15.3284 15 14.5 15H12.5C11.6716 15 11 15.6716 11 16.5V31.5C11 32.3284 11.6716 33 12.5 33H15.5C16.3284 33 17 32.3284 17 31.5V17.5C17 16.6716 17.6716 16 18.5 16H39V18.0657C39 18.4651 39.4451 18.7033 39.7773 18.4817Z" fill="#F2F2F2"/>
<path d="M43.5 21C44.3284 21 45 21.6716 45 22.5V37.5C45 38.3284 44.3284 39 43.5 39H41.5C40.6716 39 40 39.6716 40 40.5V42.5C40 43.3284 39.3284 44 38.5 44H17V46.0658C17 46.4651 16.5549 46.7032 16.2226 46.4818L8.62402 41.416C8.32716 41.2181 8.32714 40.7819 8.62402 40.584L16.2226 35.5182C16.5549 35.2968 17 35.5349 17 35.9342V38H37.5C38.3284 38 39 37.3284 39 36.5V22.5C39 21.6716 39.6716 21 40.5 21H43.5Z" fill="#F2F2F2"/>
</svg>
