<svg width="244" height="55" viewBox="0 0 244 55" fill="none" xmlns="http://www.w3.org/2000/svg">
<path d="M71.457 30.5508C72.1211 30.9258 72.793 31.2656 73.4727 31.5703C74.1602 31.8672 74.8711 32.1211 75.6055 32.332C76.3398 32.5352 77.1094 32.6914 77.9141 32.8008C78.7266 32.9102 79.5898 32.9648 80.5039 32.9648C81.6055 32.9648 82.543 32.8945 83.3164 32.7539C84.0898 32.6055 84.7188 32.4062 85.2031 32.1562C85.6953 31.8984 86.0508 31.5938 86.2695 31.2422C86.4961 30.8906 86.6094 30.5078 86.6094 30.0938C86.6094 29.4297 86.332 28.9062 85.7773 28.5234C85.2227 28.1328 84.3672 27.9375 83.2109 27.9375C82.7031 27.9375 82.168 27.9727 81.6055 28.043C81.043 28.1055 80.4727 28.1758 79.8945 28.2539C79.3242 28.332 78.7578 28.4062 78.1953 28.4766C77.6406 28.5391 77.1172 28.5703 76.625 28.5703C75.8047 28.5703 75.0156 28.4648 74.2578 28.2539C73.5078 28.043 72.8398 27.7266 72.2539 27.3047C71.6758 26.8828 71.2148 26.3555 70.8711 25.7227C70.5273 25.0898 70.3555 24.3516 70.3555 23.5078C70.3555 23.0078 70.4219 22.5117 70.5547 22.0195C70.6953 21.5273 70.9141 21.0586 71.2109 20.6133C71.5156 20.1602 71.9062 19.7422 72.3828 19.3594C72.8594 18.9688 73.4336 18.6328 74.1055 18.3516C74.7852 18.0703 75.5664 17.8516 76.4492 17.6953C77.3398 17.5312 78.3516 17.4492 79.4844 17.4492C80.3047 17.4492 81.1289 17.4961 81.957 17.5898C82.7852 17.6758 83.5898 17.8008 84.3711 17.9648C85.1602 18.1289 85.918 18.3281 86.6445 18.5625C87.3711 18.7891 88.0469 19.043 88.6719 19.3242L87.043 22.3242C86.5273 22.0977 85.9727 21.8906 85.3789 21.7031C84.7852 21.5078 84.1641 21.3398 83.5156 21.1992C82.8672 21.0586 82.1953 20.9492 81.5 20.8711C80.8125 20.7852 80.1094 20.7422 79.3906 20.7422C78.3672 20.7422 77.5234 20.8164 76.8594 20.9648C76.2031 21.1133 75.6797 21.3047 75.2891 21.5391C74.8984 21.7656 74.625 22.0234 74.4688 22.3125C74.3203 22.5938 74.2461 22.875 74.2461 23.1562C74.2461 23.7031 74.4922 24.1523 74.9844 24.5039C75.4766 24.8477 76.2266 25.0195 77.2344 25.0195C77.6406 25.0195 78.1055 24.9922 78.6289 24.9375C79.1602 24.875 79.7148 24.8086 80.293 24.7383C80.8789 24.668 81.4727 24.6055 82.0742 24.5508C82.6836 24.4883 83.2734 24.457 83.8438 24.457C84.9219 24.457 85.875 24.5781 86.7031 24.8203C87.5391 25.0625 88.2383 25.4102 88.8008 25.8633C89.3633 26.3086 89.7891 26.8516 90.0781 27.4922C90.3672 28.125 90.5117 28.8359 90.5117 29.625C90.5117 30.6797 90.2656 31.6211 89.7734 32.4492C89.2891 33.2695 88.5938 33.9648 87.6875 34.5352C86.7891 35.0977 85.7031 35.5273 84.4297 35.8242C83.1562 36.1133 81.7383 36.2578 80.1758 36.2578C79.1445 36.2578 78.1367 36.1914 77.1523 36.0586C76.168 35.9336 75.2227 35.7539 74.3164 35.5195C73.418 35.2773 72.5586 34.9922 71.7383 34.6641C70.9258 34.3281 70.1719 33.9609 69.4766 33.5625L71.457 30.5508ZM100.215 31.4648L92.2109 17.6836H96.418L102.055 28.1016L107.621 17.6836H111.828L103.93 31.4414V36H100.215V31.4648ZM114.617 17.6836H118.332L129.746 23.6602V17.6836H133.461V36H129.746V27.5977L118.332 21.6562V36H114.617V17.6836ZM137.527 26.7305C137.527 25.4258 137.773 24.2109 138.266 23.0859C138.758 21.9531 139.469 20.9727 140.398 20.1445C141.336 19.3086 142.477 18.6523 143.82 18.1758C145.172 17.6992 146.699 17.4609 148.402 17.4609C149.895 17.4609 151.262 17.6133 152.504 17.918C153.754 18.2148 154.914 18.6719 155.984 19.2891L154.273 22.1016C153.953 21.8906 153.582 21.7031 153.16 21.5391C152.746 21.375 152.301 21.2383 151.824 21.1289C151.355 21.0117 150.867 20.9219 150.359 20.8594C149.859 20.7969 149.363 20.7656 148.871 20.7656C147.684 20.7656 146.625 20.9141 145.695 21.2109C144.766 21.5 143.98 21.9102 143.34 22.4414C142.707 22.9648 142.223 23.5938 141.887 24.3281C141.559 25.0547 141.395 25.8555 141.395 26.7305C141.395 27.6367 141.566 28.4688 141.91 29.2266C142.254 29.9844 142.75 30.6406 143.398 31.1953C144.055 31.7422 144.852 32.1719 145.789 32.4844C146.734 32.7891 147.801 32.9414 148.988 32.9414C149.527 32.9414 150.062 32.9023 150.594 32.8242C151.125 32.7461 151.637 32.6406 152.129 32.5078C152.629 32.3672 153.109 32.2031 153.57 32.0156C154.031 31.8203 154.461 31.6094 154.859 31.3828L156.57 34.1953C155.57 34.8359 154.414 35.3398 153.102 35.707C151.789 36.0664 150.395 36.2461 148.918 36.2461C147.035 36.2461 145.383 36.0039 143.961 35.5195C142.539 35.0273 141.352 34.3555 140.398 33.5039C139.445 32.6445 138.727 31.6367 138.242 30.4805C137.766 29.3164 137.527 28.0664 137.527 26.7305ZM161.527 30.5508C162.191 30.9258 162.863 31.2656 163.543 31.5703C164.23 31.8672 164.941 32.1211 165.676 32.332C166.41 32.5352 167.18 32.6914 167.984 32.8008C168.797 32.9102 169.66 32.9648 170.574 32.9648C171.676 32.9648 172.613 32.8945 173.387 32.7539C174.16 32.6055 174.789 32.4062 175.273 32.1562C175.766 31.8984 176.121 31.5938 176.34 31.2422C176.566 30.8906 176.68 30.5078 176.68 30.0938C176.68 29.4297 176.402 28.9062 175.848 28.5234C175.293 28.1328 174.438 27.9375 173.281 27.9375C172.773 27.9375 172.238 27.9727 171.676 28.043C171.113 28.1055 170.543 28.1758 169.965 28.2539C169.395 28.332 168.828 28.4062 168.266 28.4766C167.711 28.5391 167.188 28.5703 166.695 28.5703C165.875 28.5703 165.086 28.4648 164.328 28.2539C163.578 28.043 162.91 27.7266 162.324 27.3047C161.746 26.8828 161.285 26.3555 160.941 25.7227C160.598 25.0898 160.426 24.3516 160.426 23.5078C160.426 23.0078 160.492 22.5117 160.625 22.0195C160.766 21.5273 160.984 21.0586 161.281 20.6133C161.586 20.1602 161.977 19.7422 162.453 19.3594C162.93 18.9688 163.504 18.6328 164.176 18.3516C164.855 18.0703 165.637 17.8516 166.52 17.6953C167.41 17.5312 168.422 17.4492 169.555 17.4492C170.375 17.4492 171.199 17.4961 172.027 17.5898C172.855 17.6758 173.66 17.8008 174.441 17.9648C175.23 18.1289 175.988 18.3281 176.715 18.5625C177.441 18.7891 178.117 19.043 178.742 19.3242L177.113 22.3242C176.598 22.0977 176.043 21.8906 175.449 21.7031C174.855 21.5078 174.234 21.3398 173.586 21.1992C172.938 21.0586 172.266 20.9492 171.57 20.8711C170.883 20.7852 170.18 20.7422 169.461 20.7422C168.438 20.7422 167.594 20.8164 166.93 20.9648C166.273 21.1133 165.75 21.3047 165.359 21.5391C164.969 21.7656 164.695 22.0234 164.539 22.3125C164.391 22.5938 164.316 22.875 164.316 23.1562C164.316 23.7031 164.562 24.1523 165.055 24.5039C165.547 24.8477 166.297 25.0195 167.305 25.0195C167.711 25.0195 168.176 24.9922 168.699 24.9375C169.23 24.875 169.785 24.8086 170.363 24.7383C170.949 24.668 171.543 24.6055 172.145 24.5508C172.754 24.4883 173.344 24.457 173.914 24.457C174.992 24.457 175.945 24.5781 176.773 24.8203C177.609 25.0625 178.309 25.4102 178.871 25.8633C179.434 26.3086 179.859 26.8516 180.148 27.4922C180.438 28.125 180.582 28.8359 180.582 29.625C180.582 30.6797 180.336 31.6211 179.844 32.4492C179.359 33.2695 178.664 33.9648 177.758 34.5352C176.859 35.0977 175.773 35.5273 174.5 35.8242C173.227 36.1133 171.809 36.2578 170.246 36.2578C169.215 36.2578 168.207 36.1914 167.223 36.0586C166.238 35.9336 165.293 35.7539 164.387 35.5195C163.488 35.2773 162.629 34.9922 161.809 34.6641C160.996 34.3281 160.242 33.9609 159.547 33.5625L161.527 30.5508ZM190.918 17.6836H194.855L203.715 36H199.812L198.348 32.918H187.648L186.23 36H182.316L190.918 17.6836ZM196.883 29.8594L192.922 21.5391L189.066 29.8594H196.883ZM206.562 17.6836H222.945V20.9414H210.277V25.7344H221.035V28.793H210.277V36H206.562V17.6836ZM226.531 17.6836H242.129V20.9414H230.246V24.5977H240.77V27.6562H230.246V32.7539H242.375V36H226.531V17.6836Z" fill="black"/>
<rect width="55" height="55" rx="5" fill="black"/>
<path d="M39.7773 18.4817L47.376 13.416C47.6728 13.2181 47.6728 12.7818 47.376 12.5839L39.7773 7.51818C39.4451 7.29663 39 7.53485 39 7.9342V9.99993H17.5C16.6716 9.99993 16 10.6715 16 11.4999V13.4999C16 14.3284 15.3284 14.9999 14.5 14.9999H12.5C11.6716 14.9999 11 15.6715 11 16.4999V31.4999C11 32.3283 11.6716 32.9999 12.5 32.9999H15.5C16.3284 32.9999 17 32.3283 17 31.4999V17.4999C17 16.6715 17.6716 15.9999 18.5 15.9999H39V18.0657C39 18.465 39.4451 18.7032 39.7773 18.4817Z" fill="#F2F2F2"/>
<path d="M43.5 21C44.3284 21 45 21.6716 45 22.5V37.5C45 38.3284 44.3284 39 43.5 39H41.5C40.6716 39 40 39.6716 40 40.5V42.5C40 43.3284 39.3284 44 38.5 44H17V46.0658C17 46.4651 16.5549 46.7032 16.2226 46.4818L8.62402 41.416C8.32716 41.2181 8.32714 40.7819 8.62402 40.584L16.2226 35.5182C16.5549 35.2968 17 35.5349 17 35.9342V38H37.5C38.3284 38 39 37.3284 39 36.5V22.5C39 21.6716 39.6716 21 40.5 21H43.5Z" fill="#F2F2F2"/>
</svg>
